<?xml version="1.0" standalone="no"?>
<!DOCTYPE svg PUBLIC "-//W3C//DTD SVG 20010904//EN"
 "http://www.w3.org/TR/2001/REC-SVG-20010904/DTD/svg10.dtd">
<svg version="1.0" xmlns="http://www.w3.org/2000/svg"
 width="781.000000pt" height="667.000000pt" viewBox="0 0 781.000000 667.000000"
 preserveAspectRatio="xMidYMid meet">

<g transform="translate(0.000000,667.000000) scale(0.100000,-0.100000)"
fill="current" stroke="none">
<path d="M364 6518 c-53 -17 -125 -80 -153 -133 l-26 -50 -3 -2970 -2 -2970
30 -62 c21 -41 44 -72 73 -93 82 -60 81 -60 744 -60 584 0 606 1 666 21 69 23
117 63 150 124 21 39 22 51 25 483 l4 442 2028 0 2029 0 3 -428 c3 -421 3
-428 26 -477 29 -63 64 -100 127 -133 l50 -27 645 0 645 0 57 28 c59 29 97 70
128 139 19 42 20 98 19 3003 0 2240 -3 2968 -12 2992 -23 61 -74 121 -129 150
l-53 28 -634 3 c-713 3 -696 4 -777 -70 -23 -21 -52 -62 -65 -91 -24 -52 -24
-54 -27 -494 l-3 -443 -2030 0 -2029 0 0 448 c0 428 -1 449 -21 492 -29 64
-84 117 -146 140 -52 19 -78 20 -681 19 -391 -1 -639 -5 -658 -11z m966 -773
l0 -245 -305 0 -305 0 0 245 0 245 305 0 305 0 0 -245z m5760 0 l0 -245 -310
0 -310 0 0 245 0 245 310 0 310 0 0 -245z m-5760 -1140 l0 -295 -305 0 -305 0
0 295 0 295 305 0 305 0 0 -295z m5760 0 l0 -295 -310 0 -310 0 0 295 0 295
310 0 310 0 0 -295z m-1160 -1265 l0 -1550 -2030 0 -2030 0 0 1550 0 1550
2030 0 2030 0 0 -1550z m-4600 75 l0 -295 -305 0 -305 0 0 295 0 295 305 0
305 0 0 -295z m5760 0 l0 -295 -310 0 -310 0 0 295 0 295 310 0 310 0 0 -295z
m-5760 -1190 l0 -295 -305 0 -305 0 0 295 0 295 305 0 305 0 0 -295z m5760 0
l0 -295 -310 0 -310 0 0 295 0 295 310 0 310 0 0 -295z m-5760 -1195 l0 -300
-305 0 -305 0 0 300 0 300 305 0 305 0 0 -300z m5760 0 l0 -300 -307 2 -308 3
-3 298 -2 297 310 0 310 0 0 -300z"/>
<path d="M3230 4292 c-41 -20 -63 -40 -81 -74 -18 -36 -19 -68 -19 -860 0
-794 1 -825 20 -866 25 -56 88 -87 148 -74 24 6 178 97 383 227 189 120 472
299 629 398 157 98 302 196 322 217 49 50 57 95 29 152 -12 24 -31 50 -44 59
-12 9 -307 197 -656 419 -527 334 -641 403 -675 406 -23 2 -48 0 -56 -4z"/>
</g>
</svg>
